<?xml version="1.0" encoding="utf-8"?>
<!-- Generator: Adobe Illustrator 14.0.0, SVG Export Plug-In . SVG Version: 6.00 Build 43363)  -->
<!DOCTYPE svg PUBLIC "-//W3C//DTD SVG 1.1//EN" "http://www.w3.org/Graphics/SVG/1.1/DTD/svg11.dtd">
<svg version="1.1" id="Layer_1" xmlns="http://www.w3.org/2000/svg" xmlns:xlink="http://www.w3.org/1999/xlink" x="0px" y="0px"
	 width="200px" height="200px" viewBox="0 0 200 200" enable-background="new 0 0 200 200" xml:space="preserve">
<g>
	<path fill="#2075BC" d="M157.89,129.871l-15.074-8.694h-39.345l-15.075,8.694c14.424,25.042,57.526,66.069,104.24,69.609
		C176.36,190.363,150.454,157.612,157.89,129.871z"/>
	<path fill="#F7B31F" d="M168.534,0.511c0.236,18.653-15.174,57.466-42.924,64.898l0.018,17.384l-0.302-0.503l19.977,34.589
		l15.053,8.718C174.842,100.59,188.815,42.731,168.534,0.511z"/>
	<path fill="#75C044" d="M8.263,120.869c16.036-9.54,57.356-15.594,77.665,4.728l15.064-8.718l-0.302,0.515l19.969-34.589
		l0.014-17.392C91.769,65.37,34.687,82.19,8.263,120.869z"/>
	<path fill="#2075BC" d="M113.919,106.951c0-5.1,4.123-9.229,9.226-9.229c5.089,0,9.222,4.129,9.222,9.229
		c0,5.097-4.133,9.229-9.222,9.229C118.042,116.18,113.919,112.048,113.919,106.951z"/>
</g>
</svg>
