<?xml version="1.0" encoding="utf-8"?>
<!-- Generator: Adobe Illustrator 14.0.0, SVG Export Plug-In . SVG Version: 6.00 Build 43363)  -->
<!DOCTYPE svg PUBLIC "-//W3C//DTD SVG 1.1//EN" "http://www.w3.org/Graphics/SVG/1.1/DTD/svg11.dtd">
<svg version="1.1" id="Layer_1" xmlns="http://www.w3.org/2000/svg" xmlns:xlink="http://www.w3.org/1999/xlink" x="0px" y="0px"
	 width="291.754px" height="89.5px" viewBox="0 0 291.754 89.5" enable-background="new 0 0 291.754 89.5" xml:space="preserve">
<g>
	<defs>
		<rect id="SVGID_1_" width="291.754" height="89.5"/>
	</defs>
	<clipPath id="SVGID_2_">
		<use xlink:href="#SVGID_1_"  overflow="visible"/>
	</clipPath>
	<g clip-path="url(#SVGID_2_)">
		<path fill="#1C75BC" d="M84.007,37.325c0,0.729-0.137,1.37-0.414,1.928c-0.275,0.557-0.646,1.017-1.112,1.376
			c-0.551,0.433-1.142,0.74-1.772,0.92c-0.63,0.179-1.444,0.27-2.441,0.27h-4.204V27.164h3.885c1.043,0,1.825,0.035,2.346,0.104
			c0.521,0.069,1.021,0.231,1.5,0.488c0.524,0.282,0.908,0.652,1.15,1.109c0.243,0.457,0.365,0.993,0.365,1.611
			c0,0.69-0.183,1.308-0.546,1.853c-0.364,0.545-0.868,0.972-1.51,1.281v0.078c0.875,0.236,1.552,0.667,2.032,1.293
			C83.768,35.606,84.007,36.389,84.007,37.325L84.007,37.325z M81.276,30.758c0-0.354-0.059-0.66-0.176-0.918
			c-0.118-0.259-0.308-0.464-0.57-0.614c-0.314-0.177-0.665-0.285-1.051-0.324c-0.387-0.039-0.92-0.059-1.602-0.059H76.01v4.284
			h2.211c0.609,0,1.058-0.031,1.346-0.093c0.288-0.063,0.585-0.191,0.894-0.389c0.294-0.19,0.504-0.438,0.629-0.747
			C81.214,31.589,81.276,31.21,81.276,30.758L81.276,30.758z M81.973,37.396c0-0.548-0.079-1.001-0.236-1.357
			c-0.157-0.357-0.476-0.659-0.954-0.906c-0.309-0.165-0.645-0.268-1.009-0.314c-0.364-0.046-0.88-0.069-1.549-0.069H76.01v5.391
			h1.584c0.853,0,1.525-0.039,2.017-0.117c0.492-0.079,0.925-0.245,1.299-0.5c0.368-0.255,0.636-0.544,0.807-0.867
			C81.888,38.333,81.973,37.914,81.973,37.396L81.973,37.396z"/>
		<path fill="#1C75BC" d="M94.931,36.326c0,1.851-0.446,3.279-1.34,4.286c-0.894,1.008-2.083,1.511-3.567,1.511
			c-1.531,0-2.735-0.52-3.613-1.561c-0.876-1.039-1.315-2.452-1.315-4.236c0-1.837,0.452-3.264,1.355-4.281
			c0.904-1.016,2.095-1.525,3.573-1.525c1.484,0,2.673,0.507,3.567,1.521C94.485,33.054,94.931,34.482,94.931,36.326L94.931,36.326z
			 M93.021,36.326c0-1.42-0.259-2.475-0.779-3.165c-0.519-0.69-1.259-1.035-2.218-1.035c-0.967,0-1.711,0.345-2.234,1.035
			c-0.523,0.69-0.784,1.745-0.784,3.165c0,1.374,0.261,2.416,0.784,3.125c0.522,0.709,1.267,1.064,2.234,1.064
			c0.953,0,1.691-0.348,2.214-1.045C92.76,38.775,93.021,37.726,93.021,36.326L93.021,36.326z"/>
		<path fill="#1C75BC" d="M102.947,40.647c-0.151,0.111-0.353,0.267-0.605,0.467c-0.253,0.2-0.497,0.359-0.733,0.478
			c-0.328,0.17-0.645,0.301-0.949,0.394c-0.305,0.092-0.733,0.138-1.284,0.138c-0.453,0-0.883-0.085-1.29-0.255
			c-0.406-0.171-0.764-0.41-1.072-0.719c-0.295-0.302-0.532-0.673-0.709-1.116c-0.177-0.442-0.266-0.909-0.266-1.401
			c0-0.761,0.161-1.408,0.483-1.943c0.321-0.534,0.829-0.958,1.525-1.273c0.616-0.281,1.344-0.477,2.185-0.585
			c0.839-0.108,1.745-0.188,2.716-0.241v-0.358c0-0.44-0.065-0.794-0.197-1.065c-0.131-0.27-0.314-0.478-0.551-0.625
			c-0.237-0.152-0.525-0.254-0.867-0.304c-0.342-0.05-0.692-0.075-1.053-0.075c-0.427,0-0.929,0.066-1.506,0.197
			c-0.578,0.131-1.155,0.322-1.733,0.571h-0.107v-1.874c0.342-0.098,0.831-0.206,1.47-0.323c0.638-0.118,1.269-0.177,1.894-0.177
			c0.756,0,1.394,0.059,1.914,0.177c0.519,0.118,0.986,0.332,1.4,0.64c0.401,0.302,0.701,0.692,0.898,1.171
			c0.197,0.479,0.296,1.064,0.296,1.752v7.522h-1.856V40.647L102.947,40.647z M102.947,39.111v-3.022
			c-0.439,0.04-0.996,0.093-1.667,0.161c-0.673,0.069-1.216,0.165-1.629,0.288c-0.492,0.149-0.899,0.379-1.22,0.688
			c-0.321,0.309-0.482,0.74-0.482,1.292c0,0.625,0.177,1.096,0.531,1.415c0.354,0.318,0.872,0.478,1.555,0.478
			c0.583,0,1.111-0.125,1.583-0.375C102.092,39.783,102.535,39.476,102.947,39.111L102.947,39.111z"/>
		<path fill="#1C75BC" d="M113.223,32.841h-0.098c-0.138-0.04-0.283-0.064-0.437-0.075s-0.338-0.015-0.554-0.015
			c-0.497,0-0.991,0.108-1.481,0.323c-0.49,0.216-0.955,0.537-1.393,0.962v7.783h-1.856V30.824h1.856v1.634
			c0.674-0.598,1.26-1.019,1.761-1.266c0.5-0.246,0.986-0.369,1.457-0.369c0.189,0,0.332,0.004,0.427,0.015s0.201,0.025,0.319,0.045
			V32.841L113.223,32.841z"/>
		<path fill="#1C75BC" d="M123.047,41.819h-1.856v-1.124c-0.29,0.243-0.54,0.443-0.75,0.601c-0.21,0.157-0.457,0.302-0.74,0.432
			c-0.264,0.125-0.537,0.222-0.819,0.291c-0.283,0.068-0.612,0.104-0.986,0.104c-0.599,0-1.153-0.125-1.663-0.374
			c-0.51-0.25-0.942-0.614-1.297-1.092c-0.361-0.486-0.642-1.085-0.838-1.797c-0.198-0.711-0.296-1.531-0.296-2.456
			c0-0.964,0.125-1.799,0.375-2.505c0.25-0.705,0.595-1.32,1.036-1.845c0.401-0.479,0.886-0.855,1.455-1.127
			s1.166-0.409,1.791-0.409c0.553,0,1.033,0.061,1.44,0.182c0.408,0.122,0.839,0.31,1.293,0.566v-4.764h1.856V41.819L123.047,41.819
			z M121.191,39.141v-6.338c-0.46-0.215-0.874-0.364-1.239-0.446c-0.365-0.082-0.762-0.123-1.189-0.123
			c-0.955,0-1.702,0.355-2.242,1.064s-0.81,1.735-0.81,3.075c0,1.289,0.207,2.275,0.622,2.958c0.415,0.684,1.08,1.025,1.995,1.025
			c0.487,0,0.978-0.109,1.472-0.328C120.292,39.809,120.756,39.514,121.191,39.141L121.191,39.141z"/>
		<path fill="#1C75BC" d="M141.075,36.326c0,1.851-0.446,3.279-1.34,4.286c-0.894,1.008-2.083,1.511-3.568,1.511
			c-1.531,0-2.735-0.52-3.612-1.561c-0.876-1.039-1.315-2.452-1.315-4.236c0-1.837,0.451-3.264,1.355-4.281
			c0.904-1.016,2.095-1.525,3.572-1.525c1.485,0,2.674,0.507,3.568,1.521C140.629,33.054,141.075,34.482,141.075,36.326
			L141.075,36.326z M139.165,36.326c0-1.42-0.26-2.475-0.779-3.165s-1.259-1.035-2.219-1.035c-0.966,0-1.711,0.345-2.233,1.035
			c-0.523,0.69-0.784,1.745-0.784,3.165c0,1.374,0.261,2.416,0.784,3.125c0.522,0.709,1.268,1.064,2.233,1.064
			c0.954,0,1.691-0.348,2.214-1.045C138.904,38.775,139.165,37.726,139.165,36.326L139.165,36.326z"/>
		<path fill="#1C75BC" d="M148.752,28.253h-0.098c-0.164-0.058-0.398-0.114-0.707-0.168c-0.307-0.054-0.58-0.082-0.822-0.082
			c-0.778,0-1.332,0.177-1.662,0.53c-0.331,0.353-0.496,0.991-0.496,1.915v0.376h3.052v1.552h-2.999v9.443h-1.856v-9.443h-1.249
			v-1.552h1.249v-0.365c0-1.327,0.318-2.337,0.954-3.027s1.547-1.035,2.734-1.035c0.342,0,0.676,0.018,1.002,0.053
			c0.33,0.036,0.627,0.077,0.896,0.123V28.253L148.752,28.253z"/>
		<polygon fill="#1C75BC" points="155.826,41.819 155.826,27.164 165.002,27.164 165.002,28.896 157.771,28.896 157.771,32.912 
			164.502,32.912 164.502,34.644 157.771,34.644 157.771,40.087 165.002,40.087 165.002,41.819 155.826,41.819 		"/>
		<path fill="#1C75BC" d="M175.559,41.819h-1.855v-1.222c-0.57,0.499-1.111,0.877-1.623,1.137c-0.51,0.259-1.08,0.389-1.711,0.389
			c-0.479,0-0.928-0.08-1.35-0.237c-0.424-0.158-0.793-0.406-1.107-0.748c-0.314-0.341-0.559-0.771-0.732-1.29
			c-0.174-0.518-0.26-1.147-0.26-1.889v-7.136h1.855v6.256c0,0.583,0.021,1.067,0.064,1.451c0.043,0.384,0.139,0.72,0.289,1.007
			c0.15,0.283,0.355,0.489,0.615,0.621c0.258,0.13,0.629,0.196,1.113,0.196c0.451,0,0.932-0.127,1.441-0.382
			c0.512-0.254,0.979-0.568,1.404-0.94v-8.209h1.855V41.819L175.559,41.819z"/>
		<path fill="#1C75BC" d="M184.049,32.841h-0.098c-0.137-0.04-0.283-0.064-0.438-0.075c-0.152-0.01-0.338-0.015-0.553-0.015
			c-0.498,0-0.992,0.108-1.48,0.323c-0.492,0.216-0.957,0.537-1.395,0.962v7.783h-1.855V30.824h1.855v1.634
			c0.674-0.598,1.26-1.019,1.76-1.266c0.502-0.246,0.988-0.369,1.459-0.369c0.189,0,0.33,0.004,0.426,0.015
			c0.094,0.01,0.201,0.025,0.318,0.045V32.841L184.049,32.841z"/>
		<path fill="#1C75BC" d="M194.463,36.326c0,1.851-0.447,3.279-1.342,4.286c-0.893,1.008-2.082,1.511-3.568,1.511
			c-1.529,0-2.734-0.52-3.609-1.561c-0.879-1.039-1.316-2.452-1.316-4.236c0-1.837,0.451-3.264,1.354-4.281
			c0.904-1.016,2.096-1.525,3.572-1.525c1.486,0,2.676,0.507,3.568,1.521C194.016,33.054,194.463,34.482,194.463,36.326
			L194.463,36.326z M192.553,36.326c0-1.42-0.26-2.475-0.779-3.165s-1.26-1.035-2.221-1.035c-0.965,0-1.709,0.345-2.232,1.035
			c-0.521,0.69-0.783,1.745-0.783,3.165c0,1.374,0.262,2.416,0.783,3.125c0.523,0.709,1.268,1.064,2.232,1.064
			c0.955,0,1.691-0.348,2.215-1.045C192.291,38.775,192.553,37.726,192.553,36.326L192.553,36.326z"/>
		<path fill="#1C75BC" d="M205.602,36.031c0,1.83-0.438,3.289-1.316,4.374c-0.879,1.086-1.988,1.629-3.33,1.629
			c-0.547,0-1.029-0.063-1.451-0.187c-0.42-0.125-0.852-0.318-1.291-0.581v4.605h-1.857V30.824h1.857v1.153
			c0.459-0.413,0.971-0.759,1.533-1.038s1.176-0.419,1.84-0.419c1.264,0,2.248,0.499,2.955,1.497S205.602,34.351,205.602,36.031
			L205.602,36.031z M203.691,36.242c0-1.253-0.201-2.226-0.602-2.917c-0.402-0.692-1.053-1.038-1.955-1.038
			c-0.527,0-1.035,0.116-1.525,0.349c-0.49,0.234-0.957,0.534-1.396,0.901v6.227c0.486,0.236,0.902,0.397,1.248,0.482
			c0.346,0.085,0.742,0.127,1.189,0.127c0.961,0,1.709-0.351,2.242-1.052S203.691,37.593,203.691,36.242L203.691,36.242z"/>
		<path fill="#1C75BC" d="M212.248,42.069c-1.754,0-3.115-0.493-4.084-1.48c-0.969-0.987-1.453-2.388-1.453-4.206
			c0-1.791,0.469-3.215,1.41-4.274c0.939-1.059,2.168-1.589,3.686-1.589c0.686,0,1.289,0.099,1.814,0.296
			c0.527,0.197,0.986,0.505,1.381,0.926c0.395,0.419,0.697,0.935,0.906,1.541c0.211,0.608,0.316,1.352,0.316,2.231v1.004h-7.641
			c0,1.279,0.322,2.256,0.967,2.932c0.645,0.675,1.535,1.013,2.674,1.013c0.406,0,0.807-0.046,1.197-0.139
			c0.391-0.093,0.744-0.212,1.061-0.357c0.334-0.153,0.617-0.3,0.848-0.442c0.23-0.142,0.42-0.275,0.572-0.401h0.107v2.02
			c-0.217,0.085-0.486,0.192-0.807,0.321c-0.322,0.127-0.611,0.227-0.867,0.299c-0.361,0.099-0.689,0.174-0.98,0.226
			C213.063,42.043,212.693,42.069,212.248,42.069L212.248,42.069z M214.422,35.108c-0.014-0.502-0.072-0.935-0.178-1.298
			s-0.256-0.67-0.455-0.921c-0.217-0.277-0.494-0.489-0.834-0.634s-0.76-0.218-1.26-0.218c-0.492,0-0.914,0.075-1.258,0.223
			c-0.348,0.149-0.66,0.365-0.943,0.649c-0.277,0.291-0.488,0.612-0.633,0.966s-0.238,0.764-0.277,1.233H214.422L214.422,35.108z"/>
		<path fill="#1C75BC" d="M224.229,40.647c-0.152,0.111-0.354,0.267-0.607,0.467c-0.252,0.2-0.496,0.359-0.732,0.478
			c-0.328,0.17-0.645,0.301-0.949,0.394c-0.305,0.092-0.734,0.138-1.285,0.138c-0.451,0-0.881-0.085-1.289-0.255
			c-0.406-0.171-0.764-0.41-1.072-0.719c-0.295-0.302-0.531-0.673-0.709-1.116c-0.176-0.442-0.264-0.909-0.264-1.401
			c0-0.761,0.16-1.408,0.48-1.943c0.322-0.534,0.83-0.958,1.525-1.273c0.617-0.281,1.346-0.477,2.186-0.585
			c0.84-0.108,1.744-0.188,2.717-0.241v-0.358c0-0.44-0.066-0.794-0.197-1.065c-0.133-0.27-0.316-0.478-0.553-0.625
			c-0.236-0.152-0.525-0.254-0.865-0.304c-0.342-0.05-0.693-0.075-1.055-0.075c-0.426,0-0.928,0.066-1.506,0.197
			c-0.578,0.131-1.154,0.322-1.732,0.571h-0.109v-1.874c0.342-0.098,0.832-0.206,1.471-0.323c0.637-0.118,1.27-0.177,1.895-0.177
			c0.756,0,1.395,0.059,1.914,0.177c0.52,0.118,0.984,0.332,1.4,0.64c0.4,0.302,0.699,0.692,0.898,1.171
			c0.195,0.479,0.295,1.064,0.295,1.752v7.522h-1.855V40.647L224.229,40.647z M224.229,39.111v-3.022
			c-0.441,0.04-0.996,0.093-1.668,0.161c-0.674,0.069-1.217,0.165-1.629,0.288c-0.492,0.149-0.898,0.379-1.221,0.688
			c-0.32,0.309-0.482,0.74-0.482,1.292c0,0.625,0.178,1.096,0.531,1.415c0.355,0.318,0.873,0.478,1.555,0.478
			c0.584,0,1.111-0.125,1.584-0.375S223.814,39.476,224.229,39.111L224.229,39.111z"/>
		<path fill="#1C75BC" d="M237.324,41.819h-1.857v-6.256c0-0.504-0.023-0.975-0.074-1.412c-0.049-0.437-0.141-0.785-0.279-1.048
			c-0.15-0.275-0.359-0.48-0.627-0.614c-0.27-0.135-0.635-0.202-1.1-0.202c-0.459,0-0.932,0.123-1.42,0.37
			c-0.486,0.245-0.961,0.565-1.426,0.958v8.205h-1.857V30.824h1.857v1.221c0.549-0.491,1.094-0.869,1.631-1.131
			s1.104-0.395,1.701-0.395c1.082,0,1.926,0.356,2.537,1.068c0.607,0.712,0.914,1.743,0.914,3.096V41.819L237.324,41.819z"/>
		<path fill="#1C75BC" d="M78.159,66.271c-1.063,0-1.965-0.109-2.709-0.33c-0.744-0.22-1.443-0.49-2.099-0.813v-2.443h0.138
			c0.642,0.606,1.368,1.077,2.18,1.41c0.812,0.333,1.594,0.499,2.347,0.499c1.074,0,1.885-0.225,2.436-0.675
			s0.825-1.043,0.825-1.779c0-0.585-0.143-1.061-0.43-1.429s-0.744-0.641-1.37-0.818c-0.453-0.131-0.865-0.24-1.24-0.324
			c-0.374-0.086-0.842-0.201-1.406-0.345c-0.504-0.131-0.957-0.299-1.357-0.502c-0.4-0.203-0.753-0.47-1.062-0.798
			c-0.302-0.321-0.536-0.7-0.703-1.137c-0.167-0.437-0.25-0.94-0.25-1.512c0-1.188,0.462-2.184,1.386-2.988
			c0.924-0.803,2.104-1.205,3.54-1.205c0.819,0,1.595,0.082,2.326,0.246c0.73,0.165,1.407,0.397,2.03,0.7v2.338h-0.147
			c-0.465-0.43-1.061-0.805-1.788-1.125c-0.727-0.321-1.489-0.482-2.288-0.482c-0.904,0-1.634,0.213-2.19,0.637
			c-0.557,0.424-0.834,0.98-0.834,1.671c0,0.624,0.163,1.12,0.489,1.488c0.326,0.368,0.799,0.638,1.419,0.808
			c0.413,0.111,0.917,0.238,1.514,0.38c0.597,0.141,1.092,0.271,1.485,0.388c1.01,0.309,1.748,0.775,2.213,1.399
			c0.465,0.623,0.698,1.391,0.698,2.303c0,0.571-0.117,1.136-0.35,1.693c-0.232,0.558-0.558,1.03-0.978,1.418
			c-0.473,0.427-1.005,0.755-1.598,0.984S79.05,66.271,78.159,66.271L78.159,66.271z"/>
		<path fill="#1C75BC" d="M88.48,66.218c-1.01,0-1.796-0.286-2.359-0.859c-0.563-0.573-0.845-1.479-0.845-2.717v-6.081h-1.25v-1.553
			h1.25v-3.16h1.856v3.16h3.391v1.553h-3.391v5.227c0,0.558,0.009,0.987,0.029,1.289c0.02,0.303,0.095,0.584,0.226,0.847
			c0.11,0.229,0.291,0.401,0.539,0.517c0.248,0.114,0.584,0.172,1.01,0.172c0.3,0,0.591-0.045,0.872-0.134
			c0.281-0.09,0.484-0.163,0.608-0.224h0.108v1.651c-0.347,0.099-0.699,0.174-1.056,0.229C89.111,66.189,88.781,66.218,88.48,66.218
			L88.48,66.218z"/>
		<path fill="#1C75BC" d="M100.461,66.004h-1.856v-1.223c-0.57,0.499-1.111,0.879-1.623,1.138s-1.081,0.388-1.711,0.388
			c-0.479,0-0.928-0.078-1.351-0.235c-0.423-0.158-0.791-0.407-1.106-0.748c-0.315-0.342-0.559-0.771-0.732-1.29
			c-0.173-0.518-0.26-1.148-0.26-1.89v-7.136h1.856v6.256c0,0.584,0.021,1.068,0.063,1.452c0.042,0.384,0.139,0.719,0.29,1.008
			c0.15,0.282,0.354,0.488,0.613,0.619c0.258,0.132,0.63,0.196,1.114,0.196c0.451,0,0.933-0.127,1.443-0.381
			c0.51-0.255,0.979-0.568,1.404-0.941v-8.209h1.856V66.004L100.461,66.004z"/>
		<path fill="#1C75BC" d="M111.592,66.004h-1.856V64.88c-0.29,0.243-0.54,0.443-0.75,0.601c-0.211,0.158-0.457,0.302-0.74,0.433
			c-0.264,0.125-0.537,0.222-0.819,0.291c-0.283,0.068-0.612,0.103-0.986,0.103c-0.599,0-1.153-0.124-1.663-0.373
			c-0.509-0.25-0.942-0.614-1.297-1.093c-0.362-0.485-0.642-1.085-0.838-1.796c-0.198-0.712-0.297-1.53-0.297-2.456
			c0-0.964,0.125-1.799,0.375-2.505c0.25-0.704,0.595-1.319,1.036-1.845c0.401-0.479,0.886-0.854,1.455-1.126
			s1.166-0.409,1.791-0.409c0.553,0,1.033,0.062,1.44,0.183c0.408,0.121,0.838,0.31,1.293,0.565v-4.765h1.856V66.004L111.592,66.004
			z M109.736,63.325v-6.338c-0.461-0.215-0.874-0.363-1.239-0.445c-0.365-0.083-0.762-0.124-1.19-0.124
			c-0.954,0-1.702,0.354-2.241,1.064c-0.541,0.709-0.81,1.734-0.81,3.075c0,1.288,0.208,2.274,0.622,2.957
			c0.415,0.684,1.08,1.024,1.995,1.024c0.487,0,0.978-0.108,1.471-0.327S109.301,63.697,109.736,63.325L109.736,63.325z"/>
		<path fill="#1C75BC" d="M119.022,66.253c-1.753,0-3.115-0.493-4.083-1.48c-0.969-0.986-1.453-2.388-1.453-4.205
			c0-1.79,0.47-3.215,1.41-4.274c0.94-1.059,2.169-1.589,3.688-1.589c0.684,0,1.288,0.1,1.814,0.296
			c0.525,0.197,0.986,0.505,1.38,0.926c0.395,0.42,0.697,0.934,0.907,1.541c0.211,0.607,0.316,1.351,0.316,2.23v1.004h-7.64
			c0,1.28,0.322,2.257,0.966,2.933c0.644,0.676,1.535,1.013,2.672,1.013c0.408,0,0.807-0.046,1.198-0.138
			c0.392-0.093,0.745-0.213,1.061-0.357c0.335-0.152,0.618-0.299,0.848-0.441c0.23-0.142,0.421-0.275,0.572-0.401h0.108v2.02
			c-0.217,0.086-0.486,0.192-0.808,0.32c-0.322,0.128-0.61,0.228-0.866,0.301c-0.362,0.098-0.689,0.174-0.98,0.226
			C119.839,66.228,119.469,66.253,119.022,66.253L119.022,66.253z M121.197,59.292c-0.014-0.502-0.073-0.935-0.178-1.298
			c-0.105-0.363-0.257-0.67-0.454-0.92c-0.217-0.278-0.496-0.489-0.834-0.635c-0.339-0.146-0.759-0.218-1.26-0.218
			c-0.493,0-0.913,0.074-1.259,0.223c-0.346,0.148-0.66,0.365-0.943,0.648c-0.277,0.291-0.487,0.612-0.632,0.966
			c-0.146,0.354-0.238,0.765-0.276,1.233H121.197L121.197,59.292z"/>
		<path fill="#1C75BC" d="M133.52,66.004h-1.856v-6.257c0-0.504-0.025-0.976-0.074-1.411c-0.049-0.437-0.143-0.786-0.28-1.048
			c-0.151-0.276-0.36-0.48-0.628-0.614c-0.268-0.136-0.634-0.202-1.099-0.202c-0.458,0-0.93,0.123-1.418,0.369
			c-0.487,0.245-0.963,0.565-1.428,0.959v8.204h-1.856V55.008h1.856v1.223c0.551-0.492,1.095-0.87,1.632-1.133
			c0.537-0.262,1.104-0.394,1.701-0.394c1.082,0,1.927,0.356,2.536,1.068s0.915,1.743,0.915,3.095V66.004L133.52,66.004z"/>
		<path fill="#1C75BC" d="M139.448,66.218c-1.009,0-1.795-0.286-2.359-0.859c-0.563-0.573-0.845-1.479-0.845-2.717v-6.081h-1.25
			v-1.553h1.25v-3.16h1.856v3.16h3.392v1.553h-3.392v5.227c0,0.558,0.01,0.987,0.029,1.289c0.02,0.303,0.095,0.584,0.226,0.847
			c0.111,0.229,0.291,0.401,0.539,0.517c0.249,0.114,0.585,0.172,1.01,0.172c0.301,0,0.591-0.045,0.872-0.134
			c0.281-0.09,0.484-0.163,0.608-0.224h0.108v1.651c-0.349,0.099-0.7,0.174-1.057,0.229
			C140.079,66.189,139.75,66.218,139.448,66.218L139.448,66.218z"/>
		<path fill="#1C75BC" d="M145.837,66.253c-0.736,0-1.424-0.098-2.064-0.294c-0.641-0.196-1.17-0.406-1.591-0.629v-2.076h0.098
			c0.157,0.127,0.342,0.265,0.555,0.417c0.212,0.151,0.496,0.31,0.85,0.476c0.314,0.145,0.66,0.273,1.036,0.386
			s0.768,0.168,1.174,0.168c0.294,0,0.609-0.034,0.943-0.104c0.333-0.069,0.583-0.156,0.748-0.262
			c0.229-0.152,0.393-0.313,0.494-0.484c0.104-0.172,0.152-0.429,0.152-0.772c0-0.441-0.117-0.774-0.354-0.999
			c-0.238-0.224-0.656-0.411-1.259-0.563c-0.237-0.057-0.546-0.125-0.927-0.201c-0.382-0.076-0.733-0.16-1.055-0.249
			c-0.84-0.243-1.451-0.618-1.832-1.127c-0.381-0.507-0.571-1.123-0.571-1.844c0-0.99,0.375-1.797,1.122-2.42
			c0.749-0.623,1.742-0.935,2.982-0.935c0.609,0,1.224,0.075,1.839,0.226c0.617,0.15,1.135,0.34,1.555,0.568v1.973h-0.098
			c-0.471-0.375-0.996-0.671-1.572-0.889c-0.58-0.216-1.163-0.325-1.75-0.325c-0.608,0-1.122,0.128-1.54,0.385
			c-0.419,0.257-0.627,0.645-0.627,1.164c0,0.46,0.123,0.804,0.37,1.031c0.246,0.227,0.643,0.412,1.187,0.557
			c0.275,0.073,0.583,0.144,0.92,0.212c0.338,0.068,0.694,0.149,1.069,0.241c0.814,0.203,1.426,0.54,1.836,1.012
			s0.615,1.114,0.615,1.928c0,0.472-0.094,0.919-0.281,1.342s-0.461,0.785-0.822,1.086c-0.395,0.328-0.838,0.578-1.334,0.748
			C147.209,66.169,146.586,66.253,145.837,66.253L145.837,66.253z"/>
		<path fill="#1C75BC" d="M167.203,60.511c0,1.851-0.445,3.279-1.34,4.285c-0.895,1.008-2.082,1.511-3.566,1.511
			c-1.531,0-2.736-0.52-3.613-1.56s-1.314-2.452-1.314-4.236c0-1.837,0.451-3.265,1.354-4.281c0.904-1.017,2.096-1.525,3.574-1.525
			c1.484,0,2.672,0.508,3.566,1.521C166.758,57.239,167.203,58.667,167.203,60.511L167.203,60.511z M165.295,60.511
			c0-1.42-0.262-2.475-0.779-3.165c-0.52-0.689-1.26-1.035-2.219-1.035c-0.967,0-1.713,0.346-2.234,1.035
			c-0.523,0.69-0.785,1.745-0.785,3.165c0,1.374,0.262,2.416,0.785,3.125c0.521,0.71,1.268,1.064,2.234,1.064
			c0.953,0,1.691-0.348,2.213-1.045C165.033,62.958,165.295,61.911,165.295,60.511L165.295,60.511z"/>
		<path fill="#1C75BC" d="M174.881,52.438h-0.098c-0.164-0.058-0.398-0.114-0.707-0.168c-0.307-0.055-0.582-0.082-0.824-0.082
			c-0.777,0-1.33,0.177-1.66,0.529s-0.496,0.99-0.496,1.914v0.377h3.053v1.553h-2.998v9.443h-1.857v-9.443h-1.248v-1.553h1.248
			v-0.365c0-1.327,0.318-2.336,0.955-3.026c0.635-0.689,1.547-1.035,2.734-1.035c0.34,0,0.674,0.018,1.002,0.054
			c0.33,0.036,0.627,0.076,0.896,0.122V52.438L174.881,52.438z"/>
		<polygon fill="#1C75BC" points="185.383,66.004 185.383,53.08 180.455,53.08 180.455,51.348 192.254,51.348 192.254,53.08 
			187.328,53.08 187.328,66.004 185.383,66.004 		"/>
		<path fill="#1C75BC" d="M196.277,66.253c-1.754,0-3.113-0.493-4.084-1.48c-0.969-0.986-1.453-2.388-1.453-4.205
			c0-1.79,0.471-3.215,1.41-4.274c0.939-1.059,2.17-1.589,3.688-1.589c0.684,0,1.289,0.1,1.814,0.296
			c0.525,0.197,0.986,0.505,1.381,0.926c0.395,0.42,0.697,0.934,0.906,1.541c0.211,0.607,0.316,1.351,0.316,2.23v1.004h-7.641
			c0,1.28,0.322,2.257,0.967,2.933s1.535,1.013,2.672,1.013c0.408,0,0.807-0.046,1.199-0.138c0.391-0.093,0.744-0.213,1.059-0.357
			c0.336-0.152,0.619-0.299,0.848-0.441c0.23-0.142,0.422-0.275,0.572-0.401h0.109v2.02c-0.217,0.086-0.486,0.192-0.809,0.32
			s-0.611,0.228-0.865,0.301c-0.363,0.098-0.689,0.174-0.982,0.226C197.094,66.228,196.725,66.253,196.277,66.253L196.277,66.253z
			 M198.451,59.292c-0.012-0.502-0.07-0.935-0.178-1.298c-0.105-0.363-0.256-0.67-0.453-0.92c-0.217-0.278-0.496-0.489-0.836-0.635
			c-0.338-0.146-0.758-0.218-1.258-0.218c-0.494,0-0.914,0.074-1.26,0.223s-0.66,0.365-0.943,0.648
			c-0.275,0.291-0.486,0.612-0.631,0.966c-0.146,0.354-0.238,0.765-0.277,1.233H198.451L198.451,59.292z"/>
		<path fill="#1C75BC" d="M206.496,66.253c-0.756,0-1.451-0.115-2.084-0.349c-0.633-0.232-1.176-0.586-1.631-1.058
			c-0.453-0.474-0.807-1.068-1.057-1.787s-0.375-1.563-0.375-2.534c0-0.964,0.129-1.798,0.391-2.5
			c0.26-0.702,0.607-1.292,1.041-1.771c0.436-0.479,0.977-0.849,1.627-1.107c0.648-0.259,1.344-0.389,2.088-0.389
			c0.607,0,1.191,0.086,1.754,0.256c0.563,0.171,1.066,0.367,1.508,0.591v2.081h-0.109c-0.133-0.112-0.303-0.24-0.51-0.384
			c-0.209-0.146-0.461-0.294-0.758-0.444c-0.258-0.132-0.561-0.247-0.912-0.345c-0.35-0.1-0.688-0.148-1.01-0.148
			c-0.963,0-1.738,0.362-2.322,1.087s-0.877,1.749-0.877,3.074c0,1.299,0.283,2.311,0.848,3.034
			c0.563,0.726,1.348,1.087,2.352,1.087c0.607,0,1.186-0.124,1.732-0.374c0.549-0.249,1.035-0.571,1.457-0.964h0.109v2.079
			c-0.186,0.085-0.416,0.188-0.691,0.31c-0.277,0.122-0.527,0.212-0.752,0.271c-0.316,0.093-0.6,0.162-0.85,0.212
			C207.215,66.229,206.893,66.253,206.496,66.253L206.496,66.253z"/>
		<path fill="#1C75BC" d="M220.074,66.004h-1.855v-6.257c0-0.504-0.025-0.976-0.074-1.411c-0.049-0.437-0.143-0.786-0.279-1.048
			c-0.15-0.276-0.359-0.48-0.629-0.614c-0.268-0.136-0.633-0.202-1.1-0.202c-0.457,0-0.93,0.123-1.416,0.369
			c-0.488,0.245-0.965,0.565-1.43,0.959v8.204h-1.855V50.688h1.855v5.543c0.551-0.492,1.096-0.87,1.633-1.133
			c0.537-0.262,1.104-0.394,1.701-0.394c1.08,0,1.926,0.356,2.535,1.068c0.611,0.712,0.914,1.743,0.914,3.095V66.004L220.074,66.004
			z"/>
		<path fill="#1C75BC" d="M231.314,66.004h-1.857v-6.257c0-0.504-0.025-0.976-0.074-1.411c-0.049-0.437-0.143-0.786-0.279-1.048
			c-0.15-0.276-0.359-0.48-0.627-0.614c-0.27-0.136-0.635-0.202-1.1-0.202c-0.459,0-0.932,0.123-1.42,0.369
			c-0.486,0.245-0.963,0.565-1.426,0.959v8.204h-1.857V55.008h1.857v1.223c0.549-0.492,1.094-0.87,1.631-1.133
			c0.537-0.262,1.104-0.394,1.701-0.394c1.08,0,1.926,0.356,2.535,1.068s0.916,1.743,0.916,3.095V66.004L231.314,66.004z"/>
		<path fill="#1C75BC" d="M242.963,60.511c0,1.851-0.447,3.279-1.34,4.285c-0.895,1.008-2.084,1.511-3.568,1.511
			c-1.531,0-2.736-0.52-3.613-1.56s-1.314-2.452-1.314-4.236c0-1.837,0.451-3.265,1.355-4.281c0.902-1.017,2.094-1.525,3.572-1.525
			c1.484,0,2.674,0.508,3.568,1.521C242.516,57.239,242.963,58.667,242.963,60.511L242.963,60.511z M241.053,60.511
			c0-1.42-0.26-2.475-0.779-3.165c-0.52-0.689-1.26-1.035-2.219-1.035c-0.967,0-1.711,0.346-2.234,1.035
			c-0.521,0.69-0.783,1.745-0.783,3.165c0,1.374,0.262,2.416,0.783,3.125c0.523,0.71,1.268,1.064,2.234,1.064
			c0.953,0,1.691-0.348,2.213-1.045C240.791,62.958,241.053,61.911,241.053,60.511L241.053,60.511z"/>
		<polygon fill="#1C75BC" points="246.748,66.004 244.891,66.004 244.891,50.688 246.748,50.688 246.748,66.004 		"/>
		<path fill="#1C75BC" d="M258.512,60.511c0,1.851-0.447,3.279-1.34,4.285c-0.895,1.008-2.084,1.511-3.568,1.511
			c-1.529,0-2.734-0.52-3.611-1.56s-1.316-2.452-1.316-4.236c0-1.837,0.451-3.265,1.355-4.281s2.094-1.525,3.572-1.525
			c1.484,0,2.674,0.508,3.568,1.521C258.064,57.239,258.512,58.667,258.512,60.511L258.512,60.511z M256.602,60.511
			c0-1.42-0.26-2.475-0.779-3.165c-0.518-0.689-1.258-1.035-2.219-1.035c-0.965,0-1.711,0.346-2.234,1.035
			c-0.521,0.69-0.783,1.745-0.783,3.165c0,1.374,0.262,2.416,0.783,3.125c0.523,0.71,1.27,1.064,2.234,1.064
			c0.955,0,1.691-0.348,2.215-1.045C256.34,62.958,256.602,61.911,256.602,60.511L256.602,60.511z"/>
		<path fill="#1C75BC" d="M260.771,67.753c0.125,0.053,0.309,0.124,0.553,0.212c0.244,0.089,0.52,0.173,0.83,0.252
			c0.342,0.085,0.658,0.153,0.947,0.207c0.289,0.053,0.605,0.079,0.947,0.079c0.572,0,1.057-0.075,1.455-0.226
			s0.709-0.359,0.934-0.627c0.211-0.268,0.359-0.578,0.443-0.931c0.086-0.353,0.129-0.754,0.129-1.204v-0.961
			c-0.5,0.434-0.99,0.754-1.469,0.961c-0.482,0.206-1.084,0.31-1.807,0.31c-1.256,0-2.256-0.466-3-1.398
			c-0.742-0.933-1.115-2.272-1.115-4.02c0-0.913,0.129-1.722,0.385-2.428c0.258-0.706,0.604-1.305,1.037-1.798
			c0.414-0.473,0.904-0.838,1.471-1.093c0.564-0.257,1.15-0.385,1.756-0.385c0.572,0,1.066,0.067,1.484,0.202
			c0.418,0.134,0.838,0.326,1.258,0.576l0.109-0.475h1.748v9.742c0,1.863-0.408,3.231-1.225,4.104
			c-0.816,0.873-2.063,1.31-3.74,1.31c-0.541,0-1.092-0.043-1.654-0.129c-0.564-0.086-1.088-0.2-1.574-0.346v-1.936H260.771
			L260.771,67.753z M267.01,63.029v-6.042c-0.461-0.224-0.887-0.384-1.279-0.479c-0.391-0.096-0.781-0.144-1.17-0.144
			c-0.941,0-1.682,0.345-2.221,1.035c-0.541,0.689-0.811,1.68-0.811,2.967c0,1.222,0.207,2.152,0.617,2.789
			c0.412,0.638,1.078,0.956,2,0.956c0.48,0,0.977-0.095,1.486-0.285C266.143,63.637,266.602,63.371,267.01,63.029L267.01,63.029z"/>
		<polygon fill="#1C75BC" points="280.186,55.008 274.268,70.055 272.277,70.055 274.254,65.459 270.26,55.008 272.248,55.008 
			275.256,63.155 278.248,55.008 280.186,55.008 		"/>
		<path fill="#1C75BC" d="M61.868,55.002l-5.024-2.896H43.728l-5.021,2.896c4.805,8.348,19.173,22.021,34.74,23.202
			C68.021,75.166,59.389,64.248,61.868,55.002L61.868,55.002z"/>
		<path fill="#FAA61A" d="M51.114,39.316L51.114,39.316l-0.097-0.171L51.114,39.316L51.114,39.316z M65.415,11.889
			c0.079,6.218-5.057,19.153-14.305,21.63l0.004,5.797l6.558,11.359l5.018,2.902C67.518,45.241,72.176,25.961,65.415,11.889
			L65.415,11.889z"/>
		<path fill="#72BF44" d="M12,52.004c5.344-3.179,19.114-5.196,25.884,1.573l5.018-2.902l-0.099,0.171l6.657-11.529l0.003-5.797
			C39.831,33.506,20.806,39.112,12,52.004L12,52.004z"/>
		<path fill="#1C75BC" d="M47.211,47.366c0-1.699,1.376-3.075,3.076-3.075c1.696,0,3.074,1.375,3.074,3.075
			c0,1.698-1.378,3.075-3.074,3.075C48.588,50.441,47.211,49.064,47.211,47.366L47.211,47.366z"/>
	</g>
</g>
</svg>
