<?xml version="1.0"?>
<!--Icons from directory ""-->
<svg xmlns="http://www.w3.org/2000/svg" width="200" height="6600" viewBox="0 0 200 6600"><svg xmlns:xlink="http://www.w3.org/1999/xlink" id="alert" xml:space="preserve" height="200" viewBox="0 0 200 200" width="200" version="1.1" y="0" x="0px" enable-background="new 0 0 200 200"><g stroke-linejoin="round" stroke="#000" stroke-linecap="round" stroke-miterlimit="10" stroke-width="2" fill="none">		<path d="m199.05 92.33c0 40.486-9.651 73.313-21.561 73.313s-21.563-32.826-21.563-73.313c0-40.487 9.653-73.305 21.563-73.305s21.56 32.821 21.56 73.308z"/>			<line x1="177.49" y2="62.148" x2="26.874" y1="19.025"/>			<line x1="177.49" y2="122.52" x2="26.874" y1="165.64"/>		<path d="m26.874 122.52c-4.767 0-8.625-13.514-8.625-30.187 0-16.672 3.857-30.186 8.625-30.186"/>		<path d="m156.8 71.324c9.564 2.207 16.693 10.776 16.693 21.01 0 10.221-7.116 18.782-16.659 21.001"/>	<path d="m17.694 113.34c-9.564-2.21-16.693-10.77-16.693-21.01 0-10.225 7.117-18.783 16.659-20.997"/>	<path d="m117.43 150.44v25.874c0 4.742-3.731 7.56-8.293 6.253l-43.787-12.507c-4.562-1.305-8.292-6.253-8.292-10.995v-25.874"/></g></svg><svg xmlns:xlink="http://www.w3.org/1999/xlink" id="bin" xml:space="preserve" height="200" viewBox="0 0 200 200" width="200" version="1.1" y="200" x="0px" enable-background="new 0 0 200 200"><g stroke-linejoin="round" stroke="#000" stroke-linecap="round" stroke-miterlimit="10" stroke-width="2" fill="none">		<polyline points="165.24 49.077 156.72 198.09 46.029 198.09 37.515 49.077"/>		<polyline points="182.27 27.791 182.27 44.82 20.485 44.82 20.485 27.791 71.574 19.276 75.739 2.246 126.92 2.246 131.18 19.276 182.27 27.791"/>		<line x1="131.36" y2="172.54" x2="127.1" y1="70.364"/>		<line x1="71.756" y2="172.54" x2="76.014" y1="70.364"/>		<line x1="101.56" y2="172.54" x2="101.56" y1="70.364"/></g></svg><svg xmlns:xlink="http://www.w3.org/1999/xlink" id="bomb" xml:space="preserve" height="200" viewBox="0 0 200 200" width="200" version="1.1" y="400" x="0px" enable-background="new 0 0 200 200"><g stroke-linejoin="round" stroke="#000" stroke-linecap="round" stroke-miterlimit="10" stroke-width="2" fill="none">		<path d="m132.78 175.49c-30.073 30.069-78.831 30.074-108.9 0-30.076-30.076-30.072-78.833 0-108.91 30.073-30.072 78.831-30.072 108.9 0 30.07 30.078 30.07 78.84 0 108.91z"/>		<path d="m42.022 157.34c-9.697-9.701-15.036-22.595-15.036-36.307s5.339-26.601 15.036-36.302c9.697-9.692 22.586-15.036 36.298-15.036"/>			<polyline points="116.83 53.199 134.56 35.472 163.89 64.806 146.16 82.532"/>		<line x1="163.89" y2="48.306" x2="151.06" y1="35.472"/>		<line x1="198.12" y2="18.358" x2="181" y1="1.246"/>		<line x1="198.12" y2="35.472" x2="181" y1="35.472"/>		<line x1="198.12" y2="52.584" x2="181" y1="65.419"/>		<line x1="163.89" y2="18.358" x2="163.89" y1="1.246"/>		<line x1="133.94" y2="18.358" x2="146.78" y1="1.246"/></g></svg><svg xmlns:xlink="http://www.w3.org/1999/xlink" id="bottle" xml:space="preserve" height="200" viewBox="0 0 200 200" width="200" version="1.1" y="600" x="0px" enable-background="new 0 0 200 200"><g stroke-linejoin="round" stroke="#000" stroke-linecap="round" stroke-miterlimit="10" stroke-width="2" fill="none">	<path d="m115.27 11.122s4.249 21.104 4.249 34.06c0 12.955 21.304 21.286 21.304 38.491l-0.125 102h0.125c0 4.709-19.475 12.771-38.25 12.771-18.784 0-38.259-8.063-38.259-12.771l-0.126-102c0-17.205 21.304-25.536 21.304-38.491 0-12.956 4.249-34.06 4.249-34.06h-8.548l4.249-8.515h34.001l4.258 8.515h-8.43z"/>	<path d="m140.76 126.07c0 25.869-17.154 46.831-38.316 46.831-21.17 0-38.317-20.962-38.317-46.831 0-25.864 17.146-46.831 38.317-46.831 21.16 0.001 38.32 20.971 38.32 46.831z"/></g></svg><svg xmlns:xlink="http://www.w3.org/1999/xlink" id="bulb" xml:space="preserve" height="200" viewBox="0 0 200 200" width="200" version="1.1" y="800" x="0px" enable-background="new 0 0 200 200"><g stroke-linejoin="round" stroke="#000" stroke-linecap="round" stroke-miterlimit="10" stroke-width="2" fill="none">		<line x1="130.05" y2="146.6" x2="70.351" y1="146.6"/>	<path d="m78.88 180.71v8.527c0 4.711 3.814 8.529 8.528 8.529h25.587c4.714 0 8.528-3.818 8.528-8.529v-8.527"/>	<path d="m70.351 155.12c0-25.382-34.115-53.808-34.115-89.551s28.635-63.962 63.964-63.962 63.965 28.222 63.965 63.965-34.115 64.169-34.115 89.551 0 25.587 0 25.587h-59.689v-25.59"/>	<path d="m96.012 27.409c-19.481 2.024-34.189 18.057-34.189 38.163 0 10.852 10.315 26.918 16.987 38.554"/></g></svg><svg xmlns:xlink="http://www.w3.org/1999/xlink" id="camera" xml:space="preserve" height="200" viewBox="0 0 200 200" width="200" version="1.1" y="1000" x="0px" enable-background="new 0 0 200 200"><g stroke-linejoin="round" stroke="#000" stroke-linecap="round" stroke-miterlimit="10" stroke-width="2" fill="none">		<circle r="72.314" cx="125.2" cy="108.35"/>	<path d="m125.2 155.15c-25.797 0-46.792-20.986-46.792-46.792 0-25.8 20.995-46.791 46.792-46.791 25.796 0 46.792 20.991 46.792 46.791 0.01 25.8-20.99 46.79-46.79 46.79z"/>	<path d="m104.36 104.1c1.699-8.308 8.254-14.875 16.558-16.583"/>	<path d="m152.71 55.324"/>	<path d="m61.398 44.548"/>		<polyline points="1.845 44.548 1.845 163.65 77.503 163.65"/>		<polyline points="172.9 163.65 197.52 163.65 197.52 44.548"/>		<line x1="78.413" y2="44.548" x2="1.845" y1="44.548"/>		<line x1="197.52" y2="44.548" x2="172" y1="44.548"/>		<polyline points="18.861 44.548 18.861 27.533 61.398 27.533 61.398 44.548"/>		<line x1="18.861" y2="70.07" x2="35.875" y1="70.07"/>		<polyline points="172 44.548 159.23 19.025 129.46 19.025 91.174 19.025 78.413 44.548"/></g></svg><svg xmlns:xlink="http://www.w3.org/1999/xlink" id="case" xml:space="preserve" height="200" viewBox="0 0 200 200" width="200" version="1.1" y="1200" x="0px" enable-background="new 0 0 200 200"><g stroke-linejoin="round" stroke="#000" stroke-linecap="round" stroke-miterlimit="10" stroke-width="2" fill="none">		<path d="m2.503 112.31h196.25v59.728c0 9.388-7.691 17.066-17.09 17.066h-162.06c-9.408 0-17.099-7.679-17.099-17.066v-59.73z"/>			<polyline points="2.503 112.31 2.503 44.044 198.75 44.044 198.75 112.31"/>	<path d="m79.297 18.447h-8.533c-4.691 0-8.532 3.84-8.532 8.532v8.533h-17.065v8.532"/>		<rect height="17.065" width="42.663" y="9.914" x="79.297"/>	<path d="m121.96 18.447h8.532c4.691 0 8.533 3.84 8.533 8.532v8.533h17.065v8.532"/>		<rect height="42.664" width="25.598" y="95.241" x="45.167"/>		<rect height="42.664" width="25.599" y="95.241" x="130.49"/></g></svg><svg xmlns:xlink="http://www.w3.org/1999/xlink" id="chart" xml:space="preserve" height="200" viewBox="0 0 200 200" width="200" version="1.1" y="1400" x="0px" enable-background="new 0 0 200 200"><g stroke-linejoin="round" stroke="#000" stroke-linecap="round" stroke-miterlimit="10" stroke-width="2" fill="none">		<rect height="25.637" width="25.636" y="172.84" x="10.542"/>		<rect height="59.818" width="25.636" y="138.65" x="61.815"/>		<rect height="102.55" width="25.637" y="95.927" x="113.09"/>		<rect height="145.27" width="25.637" y="53.199" x="164.36"/>		<line x1="198.54" y2="198.47" x2="1.997" y1="198.47"/>		<line x1="190" y2="155.74" x2="10.542" y1="1.926"/>		<polyline points="164.36 1.926 190 1.926 190 27.563"/></g></svg><svg xmlns:xlink="http://www.w3.org/1999/xlink" id="chat" xml:space="preserve" height="200" viewBox="0 0 200 200" width="200" version="1.1" y="1600" x="0px" enable-background="new 0 0 200 200"><g stroke-linejoin="round" stroke="#000" stroke-linecap="round" stroke-miterlimit="10" stroke-width="2" fill="none">	<path d="m18.938 148.59c-10.381-14.17-16.435-31.2-16.435-49.521 0-49.242 43.715-89.155 97.646-89.155 53.932 0 97.646 39.913 97.646 89.155 0 49.237-43.715 89.155-97.646 89.155-21.227 0-40.871-6.186-56.891-16.688"/>	<path d="m134.72 103.31h-26.078v-42.451h42.455v42.455c0 23.45-19.006 42.455-42.455 42.455v-12.131c16.72 0.01 26.08-13.59 26.08-30.32z"/>	<path d="m75.282 103.31h-26.078v-42.451h42.455v42.455c0 23.45-19.005 42.455-42.455 42.455v-12.131c16.716 0.01 26.078-13.59 26.078-30.32z"/>		<polyline points="43.258 171.54 43.258 171.54 2.503 188.22 18.938 148.59"/></g></svg><svg xmlns:xlink="http://www.w3.org/1999/xlink" id="clock" xml:space="preserve" height="200" viewBox="0 0 200 200" width="200" version="1.1" y="1800" x="0px" enable-background="new 0 0 200 200"><g stroke-linejoin="round" stroke="#000" stroke-linecap="round" stroke-miterlimit="10" stroke-width="2" fill="none">		<circle r="89.664" cx="99.793" cy="108.31"/>	<path d="m65.69 52.804c9.803-6.292 21.377-8.54 34.103-8.54"/>		<path d="m44.287 8.889c-9.766-9.765-25.602-9.765-35.375 0-9.766 9.776-9.766 25.61 0 35.375l35.375-35.375z"/>			<line x1="26.6" y2="38.302" x2="38.324" y1="26.576"/>		<path d="m190.68 44.264c9.766-9.765 9.766-25.6 0-35.375-9.773-9.765-25.609-9.765-35.375 0l35.38 35.375z"/>			<line x1="172.99" y2="38.302" x2="161.26" y1="26.576"/>		<line x1="52.827" y2="197.98" x2="35.748" y1="185.17"/>		<line x1="146.76" y2="197.98" x2="163.84" y1="185.17"/>		<path d="m99.793 95.501c-7.072 0-12.809 5.737-12.809 12.81 0 7.071 5.737 12.809 12.809 12.809 7.081 0 12.81-5.737 12.81-12.809 0-7.07-5.73-12.809-12.807-12.809z"/>			<line x1="90.737" y2="61.343" x2="52.827" y1="99.253"/>			<line x1="121.14" y2="117.37" x2="108.85" y1="129.66"/>		<line x1="99.793" y2="61.343" x2="99.793" y1="44.264"/></g></svg><svg xmlns:xlink="http://www.w3.org/1999/xlink" id="code" xml:space="preserve" height="200" viewBox="0 0 200 200" width="200" version="1.1" y="2000" x="0px" enable-background="new 0 0 200 200"><g stroke-linejoin="round" stroke="#000" stroke-linecap="round" stroke-miterlimit="10" stroke-width="2" fill="none">		<polyline points="44.345 148.21 1.454 101.03 44.345 53.847"/>		<polyline points="155.86 53.847 198.75 101.03 155.86 148.21"/>		<line x1="130.13" y2="191.1" x2="70.08" y1="10.956"/></g></svg><svg xmlns:xlink="http://www.w3.org/1999/xlink" id="cv" xml:space="preserve" height="200" viewBox="0 0 200 200" width="200" version="1.1" y="2200" x="0px" enable-background="new 0 0 200 200"><g stroke-linejoin="round" stroke="#000" stroke-linecap="round" stroke-miterlimit="10" stroke-width="2" fill="none">	<path d="m70.133 130.77c4.706 0 8.529-3.814 8.529-8.528v-12.794l-17.308-8.528 4.515-8.53v-17.05c0-7.072-5.723-12.794-12.794-12.794-7.072 0-12.793 5.722-12.793 12.794v17.049l4.514 8.53-17.307 8.528v12.794c0 4.714 3.814 8.528 8.529 8.528h34.115z"/>			<line x1="104.25" y2="79.6" x2="172.48" y1="79.6"/>			<line x1="104.25" y2="105.19" x2="172.48" y1="105.19"/>			<line x1="104.25" y2="130.77" x2="172.48" y1="130.77"/>		<polyline points="198.07 181.95 138.36 181.95 138.36 156.36 121.31 156.36 121.31 181.95 78.662 181.95 78.662 156.36 61.604 156.36 61.604 181.95 1.901 181.95 1.901 19.897 104.25 19.897 104.25 45.485 198.07 45.485 198.07 181.95"/></g></svg><svg xmlns:xlink="http://www.w3.org/1999/xlink" id="edit" xml:space="preserve" height="200" viewBox="0 0 200 200" width="200" version="1.1" y="2400" x="0px" enable-background="new 0 0 200 200"><g stroke-linejoin="round" stroke="#000" stroke-linecap="round" stroke-miterlimit="10" stroke-width="2" fill="none">			<polygon points="111.48 89.697 88.281 95.5 94.084 72.296 152.08 14.291 169.48 31.692"/>		<path d="m169.48 31.692l8.7-8.692c4.811-4.812 4.811-12.595 0-17.401-4.803-4.811-12.594-4.811-17.401 0l-8.7 8.692"/>		<polyline points="181.79 44.494 181.79 197.52 20.271 197.52 20.271 1.987 139.29 1.987"/>		<line x1="45.774" y2="44.494" x2="118.04" y1="44.494"/>		<line x1="45.774" y2="69.997" x2="92.531" y1="69.997"/>		<line x1="45.774" y2="95.5" x2="71.278" y1="95.5"/></g></svg><svg xmlns:xlink="http://www.w3.org/1999/xlink" id="edit_file" xml:space="preserve" height="200" viewBox="0 0 200 200" width="200" version="1.1" y="2600" x="0px" enable-background="new 0 0 200 200"><g stroke-linejoin="round" stroke="#000" stroke-linecap="round" stroke-miterlimit="10" stroke-width="2" fill="none">			<polygon points="132.57 194.19 113.44 198.98 118.22 179.85 166.03 132.03 180.38 146.37"/>		<path d="m180.38 146.37l7.178-7.168c3.963-3.964 3.963-10.38 0-14.344-3.965-3.965-10.389-3.965-14.346 0l-7.176 7.168"/>				<polyline points="96.308 198.98 10.662 198.98 10.662 1.987 113.44 1.987"/>			<path d="m156.26 44.811"/>				<polygon points="156.26 44.811 113.44 44.811 113.44 1.987"/>			<line x1="156.26" y2="113.33" x2="156.26" y1="44.811"/></g></svg><svg xmlns:xlink="http://www.w3.org/1999/xlink" id="gamepad" xml:space="preserve" height="200" viewBox="0 0 200 200" width="200" version="1.1" y="2800" x="0px" enable-background="new 0 0 200 200"><g stroke-linejoin="round" stroke="#000" stroke-linecap="round" stroke-miterlimit="10" stroke-width="2" fill="none">		<line x1="138.59" y2="87.429" x2="147.14" y1="87.429"/>		<line x1="164.25" y2="78.873" x2="172.81" y1="78.873"/>		<line x1="130.03" y2="61.761" x2="138.59" y1="61.761"/>		<line x1="112.92" y2="78.873" x2="87.251" y1="78.873"/>		<line x1="155.7" y2="53.206" x2="164.25" y1="53.206"/>	<path d="m119.4 44.659c6.905-10.319 18.669-17.121 32.021-17.121 21.266 0 38.502 17.242 38.502 38.501l8.556 85.559c0 11.813-9.575 21.39-21.39 21.39-7.002 0-13.21-3.358-17.111-8.557l-26.19-59.89h-67.41l-26.186 59.891c-3.901 5.198-10.11 8.557-17.112 8.557-11.814 0-21.389-9.576-21.389-21.39l8.556-85.559c0-21.259 17.237-38.501 38.501-38.501 13.352 0 25.116 6.801 32.021 17.121h38.629z"/>			<line x1="27.36" y2="70.317" x2="61.584" y1="70.317"/>			<line x1="44.473" y2="87.437" x2="44.473" y1="53.214"/></g></svg><svg xmlns:xlink="http://www.w3.org/1999/xlink" id="gear" xml:space="preserve" height="200" viewBox="0 0 200 200" width="200" version="1.1" y="3000" x="0px" enable-background="new 0 0 200 200">		<path stroke-linejoin="round" d="m172.16 111.68l26.301 15.544-10.157 24.251-29.721-7.556c-4.354 5.805-9.565 10.933-15.453 15.203l7.639 29.546-24.292 9.949-15.712-26.385c-3.377 0.508-6.788 0.767-10.291 0.767-3.761 0-7.472-0.3-11.058-0.859h-0.042l-15.71 26.26-24.26-10.157 7.472-29.805c-5.846-4.402-11.016-9.648-15.286-15.586l-29.371 7.855-9.949-24.292 26.386-15.628c-0.509-3.378-0.767-6.83-0.767-10.375 0-3.974 0.3-7.855 0.942-11.616v-0.014l-26.354-15.157 10.165-24.255 29.421 7.989c4.437-6.021 9.774-11.316 15.837-15.669l-7.772-29.504 24.342-9.949 15.453 26.385c3.461-0.513 6.964-0.767 10.55-0.767 3.844 0 7.555 0.296 11.224 0.892l15.59-26.302 24.251 10.165-7.855 29.504c5.938 4.395 11.191 9.691 15.544 15.712l29.505-7.685 9.949 24.296-26.385 15.753c0.508 3.328 0.767 6.747 0.767 10.249 0.01 3.84-0.28 7.6-0.89 11.27z" stroke="#000" stroke-linecap="round" stroke-miterlimit="10" stroke-width="2" fill="none"/>	<path stroke-linejoin="round" d="m79.338 121.55c11.658 11.658 30.589 11.675 42.272 0 11.676-11.675 11.676-30.61 0-42.272-11.666-11.676-30.597-11.676-42.272 0-11.674 11.674-11.658 30.602 0 42.272z" stroke="#000" stroke-linecap="round" stroke-miterlimit="10" stroke-width="2" fill="none"/></svg><svg xmlns:xlink="http://www.w3.org/1999/xlink" id="gears" xml:space="preserve" height="200" viewBox="0 0 200 200" width="200" version="1.1" y="3200" x="0px" enable-background="new 0 0 200 200">			<path stroke-linejoin="round" d="m112.72 73.37l17.099 10.104-6.609 15.76-19.317-4.904c-2.834 3.77-6.217 7.107-10.049 9.875l4.962 19.21-15.785 6.467-10.216-17.156c-2.194 0.332-4.414 0.498-6.691 0.498-2.444 0-4.855-0.191-7.19-0.548h-0.025l-10.216 17.064-15.759-6.601 4.854-19.375c-3.807-2.859-7.157-6.275-9.941-10.133l-19.092 5.108-6.467-15.785 17.157-10.163c-0.333-2.194-0.499-4.438-0.499-6.745 0-2.577 0.191-5.104 0.606-7.548v-0.033l-17.123-9.85 6.6-15.768 19.126 5.195c2.885-3.916 6.359-7.356 10.299-10.186l-5.053-19.18 15.827-6.467 10.042 17.157c2.252-0.333 4.53-0.499 6.857-0.499 2.502 0 4.912 0.191 7.298 0.573l10.131-17.095 15.769 6.609-5.104 19.18c3.849 2.86 7.265 6.301 10.099 10.216l19.177-4.996 6.467 15.793-17.148 10.241c0.324 2.161 0.498 4.381 0.498 6.658-0.01 2.498-0.21 4.938-0.59 7.328z" stroke="#000" stroke-linecap="round" stroke-miterlimit="10" stroke-width="2" fill="none"/>		<path stroke-linejoin="round" d="m51.067 81.096c8.305 8.304 21.779 8.313 30.09 0 8.313-8.316 8.313-21.794 0-30.099-8.304-8.312-21.778-8.312-30.09 0-8.319 8.313-8.303 21.795 0 30.099z" stroke="#000" stroke-linecap="round" stroke-miterlimit="10" stroke-width="2" fill="none"/>			<path stroke-linejoin="round" d="m183.9 142.9l14.063 1.837 0.084 12.194-14.064 2.211c-0.798 3.267-2.087 6.409-3.823 9.302l8.653 11.221-8.554 8.679-11.528-8.403c-1.348 0.839-2.752 1.57-4.258 2.21-1.604 0.69-3.24 1.238-4.87 1.655l-0.017 0.008-1.92 14.082-12.203 0.082-2.252-14.08c-3.3-0.815-6.467-2.12-9.368-3.874l-11.113 8.712-8.67-8.546 8.412-11.495c-0.84-1.348-1.579-2.777-2.22-4.281-0.73-1.705-1.313-3.416-1.721-5.138l-0.008-0.017-14.015-1.662-0.091-12.211 14.022-1.953c0.79-3.384 2.111-6.617 3.898-9.584l-8.694-11.172 8.569-8.695 11.422 8.445c1.38-0.848 2.826-1.587 4.355-2.252 1.646-0.698 3.283-1.255 4.954-1.663l1.861-14.072 12.202-0.083 2.037 14.022c3.324 0.799 6.542 2.104 9.492 3.874l11.206-8.661 8.669 8.553-8.388 11.546c0.823 1.33 1.555 2.743 2.194 4.231 0.72 1.64 1.28 3.29 1.7 4.98z" stroke="#000" stroke-linecap="round" stroke-miterlimit="10" stroke-width="2" fill="none"/>		<path stroke-linejoin="round" d="m146.48 163.01c6.524 2.619 13.973-0.557 16.59-7.091 2.637-6.558-0.547-13.98-7.09-16.608-6.532-2.618-13.973 0.558-16.6 7.091-2.62 6.56 0.56 13.99 7.1 16.61z" stroke="#000" stroke-linecap="round" stroke-miterlimit="10" stroke-width="2" fill="none"/></svg><svg xmlns:xlink="http://www.w3.org/1999/xlink" id="gift" xml:space="preserve" height="200" viewBox="0 0 200 200" width="200" version="1.1" y="3400" x="0px" enable-background="new 0 0 200 200"><g stroke-linejoin="round" stroke="#000" stroke-linecap="round" stroke-miterlimit="10" stroke-width="2" fill="none">		<polyline points="2.636 95.77 2.636 36.458 197.52 36.458 197.52 95.77"/>		<polyline points="180.57 95.77 180.57 197.45 19.582 197.45 19.582 95.77"/>		<line x1="87.367" y2="36.458" x2="87.367" y1="197.45"/>		<line x1="112.79" y2="197.45" x2="112.79" y1="36.458"/>		<circle r="16.946" cx="121.26" cy="19.512"/>		<circle r="16.946" cx="78.894" cy="19.512"/>		<line x1="87.367" y2="95.77" x2="2.636" y1="95.77"/>		<line x1="197.52" y2="95.77" x2="112.79" y1="95.77"/></g></svg><svg xmlns:xlink="http://www.w3.org/1999/xlink" id="globus" xml:space="preserve" height="200" viewBox="0 0 200 200" width="200" version="1.1" y="3600" x="0px" enable-background="new 0 0 200 200"><g stroke-linejoin="round" stroke="#000" stroke-linecap="round" stroke-miterlimit="10" stroke-width="2" fill="none">	<path d="m197.68 99.889c0-53.975-43.75-97.726-97.725-97.726-53.971 0-97.725 43.75-97.725 97.726 0 53.966 43.754 97.725 97.725 97.725 53.975 0 97.725-43.76 97.725-97.721z"/>	<path d="m39.997 62.98c-3.668 11.473-0.511 29.896 22.8 43.07 23.311 13.179 27.875 10.141 29.9 12.166 2.025 2.024-4.561 1.515-3.548-4.564 1.012-6.078-3.038-5.212-6.079-5.39-3.045-0.183-4.058-6.266-3.045-9.809 1.017-3.552-5.066 4.56-9.626-3.042-4.557-7.602 3.029-14.162 9.626-12.162 16.727 5.066 14.12-10.266 27.365-20.27 24.834-18.75-11.651-29.39-30.402-32.432-18.747-3.042-44.85 4.561-38.639 11.656 6.207 7.089 2.54 17.976 1.648 20.769z"/>	<path d="m98.273 133.42c-1.522 11.655-12.667 1.523 0 13.174 12.664 11.655 15.705-12.659 14.183 13.689-1.519 26.344-23.817 28.878-6.078 23.302 17.737-5.573 14.692-1.008 27.87-14.183 13.179-13.178 15.203-20.277 22.299-30.916 7.097-10.64-4.56-6.531-12.672-14.187-8.107-7.66-21.282-24.83-31.925-13.686-10.65 11.16-13.687 22.82-13.687 22.82z"/>	<path d="m127.56 6.13c-0.44 6.53 2.883 23.601 11.601 31.871s36.573 15.672 37.444 26.12c0.871 10.448 12.621 18.291 8.273 28.303-4.357 10.012-12.469 23.547-2.614 31.785 9.855 8.235 11.718 2.348 11.718 2.348"/></g></svg><svg xmlns:xlink="http://www.w3.org/1999/xlink" id="home" xml:space="preserve" height="200" viewBox="0 0 200 200" width="200" version="1.1" y="3800" x="0px" enable-background="new 0 0 200 200"><g stroke-linejoin="round" stroke="#000" stroke-linecap="round" stroke-miterlimit="10" stroke-width="2" fill="none">	<path d="m100.6 38.559l76.485 78.609c5.015 5.155 13.145 5.155 18.154 0 5.014-5.147 5.014-13.503 0-18.65l-94.64-97.272-94.629 97.27c-5.014 5.147-5.014 13.503 0 18.65 5.009 5.155 13.14 5.155 18.153 0l76.486-78.611z"/>		<polyline points="27.87 113.31 27.87 198.04 79.209 198.04 79.209 138.15 121.99 138.15 121.99 198.04 173.33 198.04 173.33 114.08"/></g></svg><svg xmlns:xlink="http://www.w3.org/1999/xlink" id="image" xml:space="preserve" height="200" viewBox="0 0 200 200" width="200" version="1.1" y="4000" x="0px" enable-background="new 0 0 200 200"><g stroke-linejoin="round" stroke="#000" stroke-linecap="round" stroke-miterlimit="10" stroke-width="2" fill="none">		<rect height="179.69" width="196.8" y="9.364" x="1.901"/>		<rect height="119.8" width="162.58" y="26.478" x="19.014"/>		<path d="m76.133 107.79l32.51-33.746c7.178-6.092 19.177-6.405 26.664-0.702l46.285 41.556"/>		<path d="m19.014 120.85l21.392-21.104c7.061-6.23 18.793-6.447 26.08-0.489l33.817 29.898"/>	<path d="m61.798 56.427c0 7.085 5.749 12.834 12.835 12.834 7.09 0 12.835-5.749 12.835-12.834 0-7.087-5.745-12.836-12.835-12.836-7.086 0-12.835 5.749-12.835 12.836z"/>		<polyline points="151.64 94.932 134.53 103.49 121.7 94.932 108.86 103.49 96.025 94.932"/></g></svg><svg xmlns:xlink="http://www.w3.org/1999/xlink" id="inbox" xml:space="preserve" height="200" viewBox="0 0 200 200" width="200" version="1.1" y="4200" x="0px" enable-background="new 0 0 200 200"><g stroke-linejoin="round" stroke="#000" stroke-linecap="round" stroke-miterlimit="10" stroke-width="2" fill="none">	<path d="m198.68 28.675v128.12c0 9.398-7.687 17.084-17.084 17.084h-162.3c-9.397 0-17.083-7.686-17.083-17.084v-128.13l196.46 0.005z"/>		<polyline points="2.224 54.292 27.845 105.54 173.05 105.54 198.68 54.292"/>		<line x1="27.845" y2="105.54" x2="62.012" y1="139.71"/>		<line x1="173.05" y2="105.54" x2="138.89" y1="139.71"/></g></svg><svg xmlns:xlink="http://www.w3.org/1999/xlink" id="label" xml:space="preserve" height="200" viewBox="0 0 200 200" width="200" version="1.1" y="4400" x="0px" enable-background="new 0 0 200 200"><g stroke-linejoin="round" stroke="#000" stroke-linecap="round" stroke-miterlimit="10" stroke-width="2" fill="none">		<polyline points="77.308 3.144 197.86 123.69 122.57 198.98 2.025 78.426"/>		<line x1="121.23" y2="122.35" x2="78.655" y1="79.774"/>		<line x1="138.26" y2="139.37" x2="95.684" y1="96.802"/>		<line x1="155.28" y2="156.4" x2="112.71" y1="113.83"/>	<path d="m64.104 17.978"/>		<polyline points="2.025 78.426 2.025 3.144 77.308 3.144"/>	<path d="m70.14 49.974c0 11.756-9.529 21.286-21.285 21.286-11.758 0-21.287-9.529-21.287-21.286 0-11.762 9.529-21.287 21.287-21.287 11.756 0 21.285 9.525 21.285 21.287z"/></g></svg><svg xmlns:xlink="http://www.w3.org/1999/xlink" id="map_marker" xml:space="preserve" height="200" viewBox="0 0 200 200" width="200" version="1.1" y="4600" x="0px" enable-background="new 0 0 200 200"><g stroke-linejoin="round" stroke="#000" stroke-linecap="round" stroke-miterlimit="10" stroke-width="2" fill="none">		<circle r="21.333" cx="101.61" cy="74.272"/>	<path d="m131.87 140.04l-30.264 58.155-30.15-58.104c-25.01-11.418-42.385-36.593-42.385-65.819 0-39.96 32.475-72.348 72.535-72.348s72.536 32.388 72.536 72.348c-0.01 29.179-17.33 54.319-42.28 65.759z"/></g></svg><svg xmlns:xlink="http://www.w3.org/1999/xlink" id="new" xml:space="preserve" height="200" viewBox="0 0 200 200" width="200" version="1.1" y="4800" x="0px" enable-background="new 0 0 200 200"><g stroke-linejoin="round" stroke="#000" stroke-linecap="round" stroke-miterlimit="10" stroke-width="2" fill="none">			<polyline points="172.4 198.52 27.405 198.52 27.405 2.348 129.75 2.348"/>		<path d="m172.4 44.993"/>			<polygon points="172.4 44.993 129.75 44.993 129.75 2.348"/>		<line x1="172.4" y2="198.52" x2="172.4" y1="44.993"/></g></svg><svg xmlns:xlink="http://www.w3.org/1999/xlink" id="outbox" xml:space="preserve" height="200" viewBox="0 0 200 200" width="200" version="1.1" y="5000" x="0px" enable-background="new 0 0 200 200"><g stroke-linejoin="round" stroke="#000" stroke-linecap="round" stroke-miterlimit="10" stroke-width="2" fill="none">		<polyline points="180.62 96.562 180.62 3.205 19.129 3.205 19.129 96.562"/>		<path d="m197.48 54.135v127.3c0 9.337-7.642 16.974-16.974 16.974h-161.26c-9.341 0-16.974-7.637-16.974-16.974v-127.31"/>			<line x1="146.55" y2="75.342" x2="197.48" y1="139"/>			<line x1="2.279" y2="139" x2="53.196" y1="75.346"/>		<path d="m172.02 164.46l-60.14-54.46c-6.602-6.602-17.405-6.602-24.007 0l-60.134 54.457"/>		<line x1="2.275" y2="54.135" x2="19.249" y1="54.126"/>		<line x1="180.5" y2="54.135" x2="197.48" y1="54.126"/>		<rect height="25.461" width="25.461" y="20.179" x="53.196"/>		<line x1="53.196" y2="62.613" x2="146.55" y1="62.613"/>		<line x1="53.196" y2="79.587" x2="146.55" y1="79.587"/></g></svg><svg xmlns:xlink="http://www.w3.org/1999/xlink" id="pen" xml:space="preserve" height="200" viewBox="0 0 200 200" width="200" version="1.1" y="5200" x="0px" enable-background="new 0 0 200 200"><g stroke-linejoin="round" stroke="#000" stroke-linecap="round" stroke-miterlimit="10" stroke-width="2" fill="none">		<circle r="21.322" cx="102.09" cy="99.687"/>	<path d="m46.654 176.44c0-11.773 9.545-21.322 21.322-21.322h68.229c11.776 0 21.322 9.549 21.322 21.322v21.321h-110.87v-21.32z"/>		<polyline points="136.2 155.12 174.58 103.95 102.09 1.607 29.597 103.95 67.976 155.12"/>		<line x1="102.09" y2="78.365" x2="102.09" y1="1.607"/></g></svg><svg xmlns:xlink="http://www.w3.org/1999/xlink" id="pig" xml:space="preserve" height="200" viewBox="0 0 200 200" width="200" version="1.1" y="5400" x="0px" enable-background="new 0 0 200 200"><g stroke-linejoin="round" stroke="#000" stroke-linecap="round" stroke-miterlimit="10" stroke-width="2" fill="none">		<path d="m66.047 64.122c67.885-17.42 98.198 21.981 98.198 51.06 0 11.607-5.087 22.312-13.71 31.017-6.304 16.12-3.276 33.235-3.276 33.235h-29.787l-4.461-12.796c-12.807 4.273-29.51 0.688-34.154-0.013l-9.032 12.809h-25.115s13.527-37.009-42.695-38.426v-29.89l17.078-4.269s2.393-11.429 8.539-21.349c0 0-5.537-18.596-17.079-29.928 0 0.002 38.411-13.733 55.505 8.549z"/>		<path d="m164.16 110.85c19.371-4.228 24.149-9.448 24.149-9.448 3.637-3.636 3.637-9.532 0-13.168-3.635-3.636-9.531-3.636-13.167 0s-3.636 9.532 0 13.168c0 0 7.246 8.914 23.341 9.723"/>	<path d="m93.007 55.962c-0.875-2.806-1.342-5.791-1.342-8.885 0-16.507 13.374-29.887 29.884-29.887 16.503 0 29.888 13.38 29.888 29.887 0 9.26-4.211 17.538-10.824 23.016"/></g></svg><svg xmlns:xlink="http://www.w3.org/1999/xlink" id="print" xml:space="preserve" height="200" viewBox="0 0 200 200" width="200" version="1.1" y="5600" x="0px" enable-background="new 0 0 200 200"><g stroke-linejoin="round" stroke="#000" stroke-linecap="round" stroke-miterlimit="10" stroke-width="2" fill="none">		<polyline points="44.321 155.4 1.955 155.4 1.955 96.089"/>	<path d="m1.955 96.089v-16.945c0-9.318 7.625-16.946 16.946-16.946h160.99c9.32 0 16.945 7.628 16.945 16.946v76.258h-42.366"/>		<rect height="67.785" width="110.15" y="129.98" x="44.321"/>		<line x1="137.52" y2="155.4" x2="61.268" y1="155.4"/>		<line x1="196.84" y2="104.56" x2="1.955" y1="104.56"/>		<line x1="137.52" y2="172.35" x2="61.268" y1="172.35"/>		<polyline points="44.321 62.197 44.321 28.304 69.74 28.304 69.74 2.885 154.47 2.885 154.47 62.197"/>		<line x1="162.94" y2="79.144" x2="162.94" y1="79.144"/>		<line x1="179.89" y2="79.144" x2="179.89" y1="79.144"/>		<line x1="44.321" y2="2.885" x2="69.74" y1="28.304"/></g></svg><svg xmlns:xlink="http://www.w3.org/1999/xlink" id="remove_file" xml:space="preserve" height="200" viewBox="0 0 200 200" width="200" version="1.1" y="5800" x="0px" enable-background="new 0 0 200 200"><g stroke-linejoin="round" stroke="#000" stroke-linecap="round" stroke-miterlimit="10" stroke-width="2" fill="none">			<polyline points="151.7 198.5 10.956 198.5 10.956 2.307 113.32 2.307"/>		<path d="m155.97 44.957"/>			<polygon points="155.97 44.957 113.32 44.957 113.32 2.307"/>		<circle r="38.385" cx="151.7" cy="160.11"/>		<line x1="155.97" y2="121.73" x2="155.97" y1="44.957"/>		<line x1="138.89" y2="147.32" x2="164.48" y1="172.91"/>		<line x1="138.88" y2="172.91" x2="164.47" y1="147.32"/></g></svg><svg xmlns:xlink="http://www.w3.org/1999/xlink" id="road_sign" xml:space="preserve" height="200" viewBox="0 0 200 200" width="200" version="1.1" y="6000" x="0px" enable-background="new 0 0 200 200"><g stroke-linejoin="round" stroke="#000" stroke-linecap="round" stroke-miterlimit="10" stroke-width="2" fill="none">	<path d="m112.97 23.783v-8.487c0-7.029-5.702-12.731-12.73-12.731s-12.73 5.702-12.73 12.731v8.487"/>		<line x1="87.506" y2="87.436" x2="87.506" y1="70.462"/>		<line x1="112.97" y2="70.462" x2="112.97" y1="87.436"/>		<polyline points="87.506 129.87 87.506 197.77 112.97 197.77 112.97 129.87"/>	</g>				<polygon stroke-linejoin="round" points="166.01 70.462 19.61 70.462 28.096 49.244 19.61 28.026 166.01 28.026 197.84 49.244" stroke="#000" stroke-linecap="round" stroke-miterlimit="10" stroke-width="2" fill="none"/>				<polygon stroke-linejoin="round" points="34.462 87.436 180.86 87.436 172.38 108.65 180.86 129.87 34.462 129.87 2.636 108.65" stroke="#000" stroke-linecap="round" stroke-miterlimit="10" stroke-width="2" fill="none"/></svg><svg xmlns:xlink="http://www.w3.org/1999/xlink" id="tone" xml:space="preserve" height="200" viewBox="0 0 200 200" width="200" version="1.1" y="6200" x="0px" enable-background="new 0 0 200 200"><g stroke="#000" stroke-width="2" stroke-miterlimit="10" fill="none">	<path d="m77.619 164.08c0 18.903-15.319 34.214-34.213 34.214s-34.214-15.31-34.214-34.21c0-18.895 15.319-34.214 34.213-34.214s34.214 15.32 34.214 34.21z"/>	<path stroke-linejoin="round" d="m26.299 164.08c0-9.435 7.677-17.106 17.107-17.106" stroke-linecap="round"/>	<path d="m188.81 155.53c0 18.902-15.318 34.213-34.213 34.213s-34.215-15.311-34.215-34.213c0-18.895 15.32-34.214 34.215-34.214s34.21 15.31 34.21 34.21z"/><g stroke-linejoin="round" stroke-linecap="round">	<path d="m137.49 155.53c0-9.436 7.668-17.107 17.107-17.107"/>		<polyline points="77.619 164.08 77.619 27.225 188.81 1.565 188.81 155.53"/>		<line x1="77.619" y2="52.886" x2="188.81" y1="78.546"/></g></g></svg><svg xmlns:xlink="http://www.w3.org/1999/xlink" id="video_camera" xml:space="preserve" height="200" viewBox="0 0 200 200" width="200" version="1.1" y="6400" x="0px" enable-background="new 0 0 200 200"><g stroke-linejoin="round" stroke="#000" stroke-linecap="round" stroke-miterlimit="10" stroke-width="2" fill="none">	<path d="m139.1 172.5c0 9.415-7.7 17.115-17.114 17.115h-102.69c-9.414 0-17.114-7.7-17.114-17.115v-77.015c0-9.414 7.7-17.114 17.114-17.114h102.68c9.414 0 17.114 7.701 17.114 17.114v77.015z"/>		<polygon points="199 181.06 139.1 163.94 139.1 104.04 199 86.928"/>	<path d="m70.644 39.864c0 16.534-13.413 29.95-29.95 29.95s-29.95-13.417-29.95-29.95c0-16.538 13.412-29.95 29.95-29.95s29.95 13.412 29.95 29.95z"/>	<path d="m121.99 48.421c0 11.807-9.576 21.393-21.393 21.393s-21.393-9.585-21.393-21.393c0-11.817 9.577-21.393 21.393-21.393s21.39 9.576 21.39 21.393z"/>	<path d="m113.43 163.94c4.726 0 8.558-3.831 8.558-8.557 0-4.73-3.832-8.557-8.558-8.557h-85.57c-4.726 0-8.557 3.826-8.557 8.557 0 4.726 3.832 8.557 8.557 8.557h85.57z"/>		<line x1="104.87" y2="104.04" x2="121.99" y1="104.04"/></g></svg></svg>
